<?xml version="1.0" encoding="utf-8"?>
<!-- Generator: Adobe Illustrator 24.2.1, SVG Export Plug-In . SVG Version: 6.00 Build 0)  -->
<svg version="1.1" id="Layer_1" xmlns="http://www.w3.org/2000/svg" xmlns:xlink="http://www.w3.org/1999/xlink" x="0px" y="0px"
	 viewBox="0 0 534.9 238.4" style="enable-background:new 0 0 534.9 238.4;" xml:space="preserve">
<style type="text/css">
	.st0{fill:#2E994F;}
</style>
<g>
	<path class="st0" d="M88.8,238.4c-13.9,0-26.4-1.6-37.3-4.8s-20.2-7.9-27.9-14.1C15.9,213.3,10.1,205.8,6,197c-4-8.9-6-18.9-6-30.2
		c0-8,1.1-17,3.4-26.8c2.2-9.8,5.3-19.5,9.3-29l23.1,7c-3.4,7.5-6.2,15.2-8.3,22.9c-2.1,7.8-3.2,14.6-3.2,20.5
		c0,12.3,4.8,21.9,14.5,28.8c9.7,6.9,23.1,10.3,40.2,10.3h19.8c16.8,0,30.5-2.3,41-7s17.5-11.3,20.9-19.8L99,164.3v-35.1l32.7,4.8
		c11.3,1.5,21,2.7,29.2,3.4c8.2,0.8,15.6,1.1,22,1.1v15.4l4,5.9c0,12.4-2.2,23.4-6.7,33.2s-10.9,18-19.3,24.7s-18.7,11.8-30.8,15.3
		C117.9,236.6,104.2,238.4,88.8,238.4z"/>
	<path class="st0" d="M214,158.7c-4.1,5.7-9.1,9.7-15,12c-5.9,2.2-13.7,3.4-23.3,3.4v-27.9l7.2-7.2c6.8,0,11.7-1.2,14.7-3.8
		c3-2.5,5.7-6.8,8-12.9l7.5-18.8c2.1-5.5,4.6-10.7,7.5-15.6c2.9-4.8,6.2-9,9.9-12.5c3.8-3.5,8-6.2,12.9-8.2c4.8-2,10.4-3,16.6-3
		c15.6,0,27.4,6.4,35.7,19.3c8.2,12.9,12.3,30.7,12.3,53.4v9.4l-22.5,33.5L214,158.7z M227.4,126.3l55.2,16.4V137
		c0-11.9-2.5-21.1-7.6-27.7c-5.1-6.6-11.9-9.9-20.5-9.9c-6.3,0-11.4,1.7-15.3,5.1c-3.9,3.4-7.1,8.4-9.4,14.9L227.4,126.3z"/>
	<path class="st0" d="M302.3,203.3h10.5c17.2,0,29.4-3.9,36.7-11.7s10.9-19.1,10.7-33.9c0-4.5-0.3-9.2-0.8-14.1
		c-0.5-4.9-1.3-10-2.1-15.2l-5.6-34.1l26-4.3l4,23.6c1.6,8.9,2.7,17.3,3.2,25.2h24.9v27.9l-7.2,7.2h-17.7
		c-1.3,9.7-3.7,18.4-7.2,26.3c-3.6,7.9-8.3,14.6-14.2,20.2c-5.9,5.6-13.1,10-21.5,13.1s-18.1,4.7-29,4.7h-10.7L302.3,203.3
		L302.3,203.3z"/>
	<path class="st0" d="M521.9,16.1l-64.4,29.5l-7.2-15.8L514.4,0L521.9,16.1z"/>
	<path class="st0" d="M440.9,158.7c-4.1,5.7-9.1,9.7-15,12c-5.9,2.2-13.7,3.4-23.3,3.4v-27.9l7.2-7.2c6.8,0,11.7-1.2,14.7-3.8
		c3-2.5,5.7-6.8,8-12.9l7.5-18.8c2.1-5.5,4.6-10.7,7.5-15.6c2.9-4.8,6.2-9,9.9-12.5c3.8-3.5,8-6.2,12.9-8.2c4.8-2,10.4-3,16.6-3
		c15.6,0,27.4,6.4,35.7,19.3c8.2,12.9,12.3,30.7,12.3,53.4v9.4l-22.5,33.5L440.9,158.7z M454.3,126.3l55.2,16.4V137
		c0-11.9-2.5-21.1-7.6-27.7c-5.1-6.6-11.9-9.9-20.5-9.9c-6.3,0-11.4,1.7-15.3,5.1c-3.9,3.4-7.1,8.4-9.4,14.9L454.3,126.3z"/>
</g>
</svg>
