<?xml version="1.0" encoding="utf-8"?>
<!-- Generator: Adobe Illustrator 24.2.1, SVG Export Plug-In . SVG Version: 6.00 Build 0)  -->
<svg version="1.1" id="Layer_1" xmlns="http://www.w3.org/2000/svg" xmlns:xlink="http://www.w3.org/1999/xlink" x="0px" y="0px"
	 viewBox="0 0 557 692.3" style="enable-background:new 0 0 557 692.3;" xml:space="preserve">
<style type="text/css">
	.st0{fill:#2E994F;}
</style>
<path class="st0" d="M554.1,240.8c-12-84.6-54.6-150.7-126.3-197.2C373.7,8.5,313.7-4.8,249.6,1.5C203.8,6,161.8,21.4,123.5,47.1
	c-32,21.5-58.5,48.3-79.3,80.6C14.8,173.7,0,224.1,0,284.5c-0.1,22.2,4.2,49.5,12.4,76.3c10.8,35.2,29.1,66,52.2,94.7
	c41,50.9,80.7,102.9,120.9,154.5c15.3,19.7,31.5,38.6,45.6,59.2c17,24.8,49.4,30.6,73.5,12.5c6.1-4.6,9.7-11,14.3-16.6
	c28.7-34.8,57.5-69.7,86.2-104.5c23.6-28.6,47.3-57.2,70.9-85.9c11.4-13.8,23.8-26.9,33.7-41.7C548.6,374.6,563.9,310.2,554.1,240.8
	z M320.8,481.1c-1.3-0.4-2.4-1.4-3.4-3c-6.3-10.5-12.7-21-19.2-31.5c-1.5-2.4-1.3-4.3,0.3-6.7c13.2-19.4,26.2-39,39.4-58.4
	c1.1-1.6,3.9-3.1,5.9-3.1c20.7,0.1,40.9-2.9,60.6-9.2c1.6-0.5,4.1-0.6,5.4,0.3c13.2,8.6,26.2,17.4,39.8,26.5
	C419.5,439.5,373.3,470.4,320.8,481.1z M71.6,303.1L71.6,303.1c15.9-1.8,31.8-3.6,47.8-5.2c1.4-0.1,3.4,1.1,4.5,2.2
	c14.5,14.8,30.9,26.8,49.3,36.4c1.6,0.9,3.2,3.2,3.5,5.1c2.8,22.3,5.1,44.7,7.9,67c0.7,5.2-0.3,8.6-5,11.3
	c-10,5.6-19.8,11.6-29.6,17.6c-1.4,0.8-2.5,1.1-3.6,1C106.4,405.9,78.4,358.4,71.6,303.1z M248.9,70.8c1,0.3,1.7,1.1,2.4,2.4
	c3.4,6.4,7.1,12.6,10.3,19.1c0.7,1.5,0.6,4.2-0.4,5.7c-13.3,20.2-26.7,40.2-40.3,60.2c-0.9,1.4-3,2.6-4.6,2.8
	c-24,3.1-46.1,11.5-66.4,24.6c-1.1,0.7-3.3,1.1-4.2,0.5c-13.2-8.7-26.2-17.6-39.6-26.6C138.5,112.1,189.8,79.1,248.9,70.8z
	 M279.5,304c5.5-22.1,11-44.2,16.2-66.4c0.7-3,2-4.3,5-5c23.5-6,46.9-12.3,70.5-18.2c2.2-0.5,5.2,0.1,7.1,1.4
	c18.6,12.2,32.8,28.6,43.6,48c0.8,1.4,1.1,3.5,0.8,5c-6.4,27-13,53.9-19.4,80.8c-0.7,2.8-2.1,4.1-4.8,4.7
	c-7.8,1.8-15.5,4.2-23.4,5.6s-15.9,1.9-23.9,2.8c-8.7,1.6-14.8-2.3-21-8.1c-15.8-14.9-32.1-29.2-48.3-43.6
	C279.6,309.1,278.7,307.2,279.5,304z M264.3,300.7c-0.7,2.7-1.9,4-4.7,4.7c-23.5,5.9-47,12.2-70.5,18c-2.4,0.6-5.5,0.2-7.8-0.9
	c-17.5-8.6-33.1-20-46.7-34.1c-2.2-2.2-2.9-4.2-2.1-7.3c6.1-24.7,12.1-49.4,18.2-74.1c0.4-1.8,1.4-3.9,2.8-4.8
	c19.4-13.1,40.4-22.5,63.9-25.4c0.5-0.1,1-0.1,2.9-0.2c0.6,0.3,2.5,0.8,3.8,2c18.4,16.4,36.8,32.8,55,49.3c1.2,1.1,1.8,3.7,1.5,5.4
	C275.1,255.8,269.6,278.2,264.3,300.7z M366.2,108.5c-1.3,0.8-3.5,1-5,0.6c-26.8-6.4-53.5-12.9-80.2-19.5c-1.3-0.3-3-1-3.6-2.1
	c-3.3-5.9-6.3-12-9.8-18.6c3.2-0.2,6.3-0.3,9.5-0.3c38.7-0.2,74.9,10,106,28C376.9,101.1,371.7,105,366.2,108.5z M161.7,449.8
	c7.2-4.4,14.5-7.8,20.3-12.9c9.3-8.1,18.3-8.8,29.9-5.3c21.8,6.4,44.2,11,66.3,16.5c1.7,0.4,3.8,1.5,4.7,2.9
	c6.2,10.7,12.1,21.5,18.5,33c-7.6,0.8-15.3,1.2-23.1,1.1C235.7,485.5,195.4,472.6,161.7,449.8z M443.1,255.9
	c-5.2,1.4-7.8-0.3-10.4-4.9c-11.5-19.7-26.9-36-45.8-48.8c-1.8-1.3-3.5-4-3.8-6.2c-2.8-22.5-5.2-45-8-67.5
	c-0.6-4.6,0.2-7.7,4.4-10.2c5.2-3,10.3-6.5,15.2-10c1.7-1.2,3-1.5,4.4-1.2c46.5,33,78.8,84.5,86,144c-10.4,1.2-20.1,2.3-29.9,3.4
	C451.3,255,447,254.9,443.1,255.9z"/>
</svg>
