<?xml version="1.0" encoding="utf-8"?>
<!-- Generator: Adobe Illustrator 24.2.1, SVG Export Plug-In . SVG Version: 6.00 Build 0)  -->
<svg version="1.1" id="Layer_1" xmlns="http://www.w3.org/2000/svg" xmlns:xlink="http://www.w3.org/1999/xlink" x="0px" y="0px"
	 viewBox="0 0 1080 1080" style="enable-background:new 0 0 1080 1080;" xml:space="preserve">
<style type="text/css">
	.st0{fill:#2E994F;}
</style>
<path class="st0" d="M815.6,240.8c-12-84.6-54.6-150.7-126.3-197.2C635.2,8.5,575.2-4.8,511.1,1.5C465.3,6,423.3,21.4,385,47.1
	c-32,21.5-58.5,48.3-79.3,80.6c-29.4,46-44.2,96.4-44.2,156.8c-0.1,22.2,4.2,49.5,12.4,76.3c10.8,35.2,29.1,66,52.2,94.7
	c41,50.9,80.7,102.9,120.9,154.5c15.3,19.7,31.5,38.6,45.6,59.2c17,24.8,49.4,30.6,73.5,12.5c6.1-4.6,9.7-11,14.3-16.6
	c28.7-34.8,57.5-69.7,86.2-104.5c23.6-28.6,47.3-57.2,70.9-85.9c11.4-13.8,23.8-26.9,33.7-41.7C810.1,374.6,825.4,310.2,815.6,240.8
	z M582.3,481.1c-1.3-0.4-2.4-1.4-3.4-3c-6.3-10.5-12.7-21-19.2-31.5c-1.5-2.4-1.3-4.3,0.3-6.7c13.2-19.4,26.2-39,39.4-58.4
	c1.1-1.6,3.9-3.1,5.9-3.1c20.7,0.1,40.9-2.9,60.6-9.2c1.6-0.5,4.1-0.6,5.4,0.3c13.2,8.6,26.2,17.4,39.8,26.5
	C681,439.5,634.8,470.4,582.3,481.1z M333.1,303.1C333.1,303.1,333.1,303.1,333.1,303.1c15.9-1.8,31.8-3.6,47.8-5.2
	c1.4-0.1,3.4,1.1,4.5,2.2c14.5,14.8,30.9,26.8,49.3,36.4c1.6,0.9,3.2,3.2,3.5,5.1c2.8,22.3,5.1,44.7,7.9,67c0.7,5.2-0.3,8.6-5,11.3
	c-10,5.6-19.8,11.6-29.6,17.6c-1.4,0.8-2.5,1.1-3.6,1C367.9,405.9,339.9,358.4,333.1,303.1z M510.4,70.8c1,0.3,1.7,1.1,2.4,2.4
	c3.4,6.4,7.1,12.6,10.3,19.1c0.7,1.5,0.6,4.2-0.4,5.7c-13.3,20.2-26.7,40.2-40.3,60.2c-0.9,1.4-3,2.6-4.6,2.8
	c-24,3.1-46.1,11.5-66.4,24.6c-1.1,0.7-3.3,1.1-4.2,0.5c-13.2-8.7-26.2-17.6-39.6-26.6C400,112.1,451.3,79.1,510.4,70.8z M541,304
	c5.5-22.1,11-44.2,16.2-66.4c0.7-3,2-4.3,5-5c23.5-6,46.9-12.3,70.5-18.2c2.2-0.5,5.2,0.1,7.1,1.4c18.6,12.2,32.8,28.6,43.6,48
	c0.8,1.4,1.1,3.5,0.8,5c-6.4,27-13,53.9-19.4,80.8c-0.7,2.8-2.1,4.1-4.8,4.7c-7.8,1.8-15.5,4.2-23.4,5.6c-7.9,1.4-15.9,1.9-23.9,2.8
	c-8.7,1.6-14.8-2.3-21-8.1c-15.8-14.9-32.1-29.2-48.3-43.6C541.1,309.1,540.2,307.2,541,304z M525.8,300.7c-0.7,2.7-1.9,4-4.7,4.7
	c-23.5,5.9-47,12.2-70.5,18c-2.4,0.6-5.5,0.2-7.8-0.9c-17.5-8.6-33.1-20-46.7-34.1c-2.2-2.2-2.9-4.2-2.1-7.3
	c6.1-24.7,12.1-49.4,18.2-74.1c0.4-1.8,1.4-3.9,2.8-4.8c19.4-13.1,40.4-22.5,63.9-25.4c0.5-0.1,1-0.1,2.9-0.2c0.6,0.3,2.5,0.8,3.8,2
	c18.4,16.4,36.8,32.8,55,49.3c1.2,1.1,1.8,3.7,1.5,5.4C536.6,255.8,531.1,278.2,525.8,300.7z M627.7,108.5c-1.3,0.8-3.5,1-5,0.6
	c-26.8-6.4-53.5-12.9-80.2-19.5c-1.3-0.3-3-1-3.6-2.1c-3.3-5.9-6.3-12-9.8-18.6c3.2-0.2,6.3-0.3,9.5-0.3c38.7-0.2,74.9,10,106,28
	C638.4,101.1,633.2,105,627.7,108.5z M423.2,449.8c7.2-4.4,14.5-7.8,20.3-12.9c9.3-8.1,18.3-8.8,29.9-5.3
	c21.8,6.4,44.2,11,66.3,16.5c1.7,0.4,3.8,1.5,4.7,2.9c6.2,10.7,12.1,21.5,18.5,33c-7.6,0.8-15.3,1.2-23.1,1.1
	C497.2,485.5,456.9,472.6,423.2,449.8z M704.6,255.9c-5.2,1.4-7.8-0.3-10.4-4.9c-11.5-19.7-26.9-36-45.8-48.8
	c-1.8-1.3-3.5-4-3.8-6.2c-2.8-22.5-5.2-45-8-67.5c-0.6-4.6,0.2-7.7,4.4-10.2c5.2-3,10.3-6.5,15.2-10c1.7-1.2,3-1.5,4.4-1.2
	c46.5,33,78.8,84.5,86,144c-10.4,1.2-20.1,2.3-29.9,3.4C712.8,255,708.5,254.9,704.6,255.9z"/>
<g>
	<path class="st0" d="M362,922.9c-13.9,0-26.4-1.6-37.3-4.8c-10.9-3.2-20.2-7.9-27.9-14.1c-7.7-6.2-13.5-13.7-17.6-22.5
		c-4-8.9-6-18.9-6-30.2c0-8,1.1-17,3.4-26.8c2.2-9.8,5.3-19.5,9.3-29l23.1,7c-3.4,7.5-6.2,15.2-8.3,22.9c-2.1,7.8-3.2,14.6-3.2,20.5
		c0,12.3,4.8,21.9,14.5,28.8c9.7,6.9,23.1,10.3,40.2,10.3h19.8c16.8,0,30.5-2.3,41-7c10.5-4.7,17.5-11.3,20.9-19.8l-61.7-9.4v-35.1
		l32.7,4.8c11.3,1.5,21,2.7,29.2,3.4c8.2,0.8,15.6,1.1,22,1.1v15.4l4,5.9c0,12.4-2.2,23.4-6.7,33.2c-4.5,9.8-10.9,18-19.3,24.7
		c-8.4,6.7-18.7,11.8-30.8,15.3C391.1,921.1,377.4,922.9,362,922.9z"/>
	<path class="st0" d="M487.2,843.2c-4.1,5.7-9.1,9.7-15,12c-5.9,2.2-13.7,3.4-23.3,3.4v-27.9l7.2-7.2c6.8,0,11.7-1.2,14.7-3.8
		c3-2.5,5.7-6.8,8-12.9l7.5-18.8c2.1-5.5,4.6-10.7,7.5-15.6c2.9-4.8,6.2-9,9.9-12.5c3.8-3.5,8-6.2,12.9-8.2c4.8-2,10.4-3,16.6-3
		c15.6,0,27.4,6.4,35.7,19.3c8.2,12.9,12.3,30.7,12.3,53.4v9.4l-22.5,33.5L487.2,843.2z M500.6,810.8l55.2,16.4v-5.7
		c0-11.9-2.5-21.1-7.6-27.7c-5.1-6.6-11.9-9.9-20.5-9.9c-6.3,0-11.4,1.7-15.3,5.1c-3.9,3.4-7.1,8.4-9.4,14.9L500.6,810.8z"/>
	<path class="st0" d="M575.5,887.8h10.5c17.2,0,29.4-3.9,36.7-11.7c7.3-7.8,10.9-19.1,10.7-33.9c0-4.5-0.3-9.2-0.8-14.1
		c-0.5-4.9-1.3-10-2.1-15.2l-5.6-34.1l26-4.3l4,23.6c1.6,8.9,2.7,17.3,3.2,25.2H683v27.9l-7.2,7.2h-17.7c-1.3,9.7-3.7,18.4-7.2,26.3
		c-3.6,7.9-8.3,14.6-14.2,20.2c-5.9,5.6-13.1,10-21.5,13.1c-8.4,3.1-18.1,4.7-29,4.7h-10.7V887.8z"/>
	<path class="st0" d="M795.1,700.6l-64.4,29.5l-7.2-15.8l64.1-29.8L795.1,700.6z"/>
	<path class="st0" d="M714.1,843.2c-4.1,5.7-9.1,9.7-15,12c-5.9,2.2-13.7,3.4-23.3,3.4v-27.9l7.2-7.2c6.8,0,11.7-1.2,14.7-3.8
		c3-2.5,5.7-6.8,8-12.9l7.5-18.8c2.1-5.5,4.6-10.7,7.5-15.6c2.9-4.8,6.2-9,9.9-12.5c3.8-3.5,8-6.2,12.9-8.2c4.8-2,10.4-3,16.6-3
		c15.6,0,27.4,6.4,35.7,19.3c8.2,12.9,12.3,30.7,12.3,53.4v9.4l-22.5,33.5L714.1,843.2z M727.5,810.8l55.2,16.4v-5.7
		c0-11.9-2.5-21.1-7.6-27.7c-5.1-6.6-11.9-9.9-20.5-9.9c-6.3,0-11.4,1.7-15.3,5.1c-3.9,3.4-7.1,8.4-9.4,14.9L727.5,810.8z"/>
	<path class="st0" d="M361.6,987.7h-0.8l-9.3,18.4l-26.2,47.7l-26.2-47.7l-9.3-18.4H289v92.3h-12.9V970.4h17.6l31.4,59h0.8l31.6-59
		h17V1080h-12.9V987.7z"/>
	<path class="st0" d="M472.3,1080l-11-32.4H417l-11,32.4h-13.3L431,970.4h16.8l38.3,109.6H472.3z M439.5,982.6h-0.8l-18.5,53.4H458
		L439.5,982.6z"/>
	<path class="st0" d="M517.5,1080h-13.2V970.4H548c9.6,0,17.1,2.7,22.5,8c5.4,5.3,8.1,13,8.1,23.1c0,8.1-1.9,14.7-5.6,19.9
		c-3.7,5.2-9.2,8.6-16.4,10.3l25.1,48.4h-14.9l-23.7-47.1h-25.6V1080z M548,1021.6c5.2,0,9.3-1.4,12.2-4.1c2.9-2.7,4.3-6.6,4.3-11.6
		v-8.2c0-5-1.4-8.9-4.3-11.6c-2.9-2.7-6.9-4.1-12.2-4.1h-30.5v39.6H548z"/>
	<path class="st0" d="M690.3,987.7h-0.8l-9.3,18.4l-26.2,47.7l-26.2-47.7l-9.3-18.4h-0.8v92.3h-12.9V970.4h17.6l31.4,59h0.8l31.6-59
		h17V1080h-12.9V987.7z"/>
	<path class="st0" d="M801,1080l-11-32.4h-44.3l-11,32.4h-13.3l38.3-109.6h16.8l38.3,109.6H801z M768.2,982.6h-0.8l-18.5,53.4h37.8
		L768.2,982.6z"/>
</g>
</svg>
